<svg version="1.1" id="Layer_1" xmlns="http://www.w3.org/2000/svg" xmlns:xlink="http://www.w3.org/1999/xlink" x="0px" y="0px"
	 width="100%" viewBox="0 0 1000 1000" enable-background="new 0 0 1000 1000" xml:space="preserve">
<path fill="#000000" opacity="0.000000" stroke="none" 
	d="
M579.000000,1001.000000 
	C386.000000,1001.000000 193.500000,1001.000000 1.000000,1001.000000 
	C1.000000,667.666687 1.000000,334.333344 1.000000,1.000000 
	C334.333344,1.000000 667.666687,1.000000 1001.000000,1.000000 
	C1001.000000,334.333344 1001.000000,667.666687 1001.000000,1001.000000 
	C860.500000,1001.000000 720.000000,1001.000000 579.000000,1001.000000 
M502.677979,979.008484 
	C503.462158,978.077637 504.246368,977.146729 505.700012,975.972717 
	C516.471497,966.777100 527.242554,957.580933 538.014709,948.386047 
	C551.554932,936.828247 565.139587,925.322083 578.622925,913.698242 
	C589.499146,904.322021 600.210815,894.755005 611.072937,885.362183 
	C625.041565,873.283081 639.108398,861.317444 653.093506,849.257263 
	C663.465454,840.312927 673.738953,831.254456 684.120178,822.320984 
	C697.738342,810.601807 711.454895,798.996765 725.061951,787.264771 
	C735.811157,777.997009 746.427551,768.575317 757.160400,759.288391 
	C768.754761,749.255981 780.400146,739.282288 792.052979,729.317871 
	C800.693726,721.929138 809.234192,714.412292 818.088989,707.287659 
	C827.787109,699.484497 827.921326,699.652344 827.922180,687.172485 
	C827.928772,596.844177 827.935669,506.515839 828.044800,415.231354 
	C828.044800,283.971375 828.044800,152.711395 828.044800,20.777596 
	C825.904480,21.729494 824.934326,22.023577 824.110107,22.547361 
	C791.905884,43.013248 759.714172,63.498833 727.522461,83.984436 
	C697.429565,103.134468 667.317139,122.253838 637.251831,141.447144 
	C597.257324,166.979187 557.314331,192.591904 517.309204,218.107269 
	C512.298706,221.302979 507.045166,224.117584 501.306427,227.016693 
	C500.905182,227.045883 500.503967,227.075073 499.397156,226.962341 
	C456.673492,199.825943 413.946503,172.694839 371.227173,145.551605 
	C332.004211,120.629868 292.773071,95.720924 253.577759,70.755768 
	C232.018158,57.023537 210.530426,43.178463 188.997192,29.404762 
	C184.632660,26.612989 180.209274,23.913218 175.000076,20.663950 
	C175.000076,23.976389 175.000076,26.121391 175.000076,28.266392 
	C175.000061,96.087090 174.991623,163.907791 175.002472,231.728485 
	C175.012299,293.215546 175.043167,354.702606 175.068192,417.098694 
	C175.067093,433.761505 175.065125,450.424316 175.065048,467.087128 
	C175.064697,542.736633 175.041702,618.386169 175.174622,694.035400 
	C175.178696,696.355103 176.137024,699.438965 177.779709,700.872375 
	C195.672363,716.485596 213.825516,731.799561 231.837387,747.276917 
	C249.110550,762.119446 266.291046,777.069763 283.530273,791.951721 
	C302.891998,808.665955 322.276215,825.354065 341.646606,842.058228 
	C358.642303,856.714478 375.632690,871.376953 392.624847,886.037354 
	C409.617004,900.697876 426.636353,915.326904 443.592743,930.028687 
	C462.056549,946.037415 480.451263,962.125916 498.928802,978.118713 
	C499.703613,978.789368 501.012238,978.843262 502.677979,979.008484 
z"/>
<path fill="#EC821B" opacity="1.000000" stroke="none" 
	d="
M500.102722,227.104279 
	C500.503967,227.075073 500.905182,227.045883 501.729980,227.383087 
	C503.466919,228.736832 504.693542,229.874420 506.106110,230.690125 
	C601.150391,285.575256 696.217896,340.420258 791.257080,395.314240 
	C803.040771,402.120361 814.680786,409.174957 826.313232,416.474213 
	C822.898804,422.777557 819.616394,428.754547 816.209229,434.659546 
	C774.444580,507.043182 732.662842,579.416992 690.883118,651.791931 
	C654.097046,715.516479 617.325989,779.249817 580.506897,842.955261 
	C571.767700,858.076111 562.862854,873.101257 553.559326,888.163940 
	C538.095032,888.157471 523.105652,888.157654 508.116302,888.157776 
	C490.462158,888.157837 472.807983,888.141235 455.153931,888.182007 
	C453.244659,888.186401 450.430206,887.207092 450.673889,890.939575 
	C449.474945,889.656799 448.512512,888.503235 447.771667,887.221558 
	C419.102936,837.624268 390.445465,788.020569 361.805145,738.406860 
	C299.780060,630.960449 237.765060,523.508118 176.014557,415.826111 
	C283.171356,353.907532 390.062012,292.225342 496.918854,230.484650 
	C498.202606,229.742905 499.051056,228.247726 500.102722,227.104279 
M624.434143,431.066040 
	C618.016113,423.680267 611.598022,416.294495 604.733398,408.394775 
	C584.674072,431.576904 564.973145,454.344818 544.922791,477.516541 
	C585.334717,477.516541 624.651184,477.516541 664.629639,477.516541 
	C651.049866,461.813721 637.981384,446.702209 624.434143,431.066040 
M439.409088,454.093262 
	C426.333984,439.031616 413.258850,423.969940 399.735565,408.391998 
	C379.673615,431.576752 359.972443,454.344543 339.921387,477.516693 
	C380.334381,477.516693 419.651154,477.516693 459.598694,477.516693 
	C452.696136,469.500885 446.289825,462.061371 439.409088,454.093262 
z"/>
<path fill="#5A1715" opacity="1.000000" stroke="none" 
	d="
M826.387390,416.114410 
	C814.680786,409.174957 803.040771,402.120361 791.257080,395.314240 
	C696.217896,340.420258 601.150391,285.575256 506.106110,230.690125 
	C504.693542,229.874420 503.466919,228.736832 502.028870,227.429108 
	C507.045166,224.117584 512.298706,221.302979 517.309204,218.107269 
	C557.314331,192.591904 597.257324,166.979187 637.251831,141.447144 
	C667.317139,122.253838 697.429565,103.134468 727.522461,83.984436 
	C759.714172,63.498833 791.905884,43.013248 824.110107,22.547361 
	C824.934326,22.023577 825.904480,21.729494 828.044800,20.777596 
	C828.044800,152.711395 828.044800,283.971375 827.741211,415.617432 
	C827.087524,416.040497 826.737427,416.077454 826.387390,416.114410 
z"/>
<path fill="#5A1715" opacity="1.000000" stroke="none" 
	d="
M499.749939,227.033295 
	C499.051056,228.247726 498.202606,229.742905 496.918854,230.484650 
	C390.062012,292.225342 283.171356,353.907532 175.843292,415.846741 
	C175.403427,416.099518 175.064758,416.189667 175.064758,416.189667 
	C175.043167,354.702606 175.012299,293.215546 175.002472,231.728485 
	C174.991623,163.907791 175.000061,96.087090 175.000076,28.266392 
	C175.000076,26.121391 175.000076,23.976389 175.000076,20.663950 
	C180.209274,23.913218 184.632660,26.612989 188.997192,29.404762 
	C210.530426,43.178463 232.018158,57.023537 253.577759,70.755768 
	C292.773071,95.720924 332.004211,120.629868 371.227173,145.551605 
	C413.946503,172.694839 456.673492,199.825943 499.749939,227.033295 
z"/>
<path fill="#FFE372" opacity="1.000000" stroke="none" 
	d="
M826.313232,416.474213 
	C826.737427,416.077454 827.087524,416.040497 827.690002,416.095520 
	C827.935669,506.515839 827.928772,596.844177 827.922180,687.172485 
	C827.921326,699.652344 827.787109,699.484497 818.088989,707.287659 
	C809.234192,714.412292 800.693726,721.929138 792.052979,729.317871 
	C780.400146,739.282288 768.754761,749.255981 757.160400,759.288391 
	C746.427551,768.575317 735.811157,777.997009 725.061951,787.264771 
	C711.454895,798.996765 697.738342,810.601807 684.120178,822.320984 
	C673.738953,831.254456 663.465454,840.312927 653.093506,849.257263 
	C639.108398,861.317444 625.041565,873.283081 611.072937,885.362183 
	C600.210815,894.755005 589.499146,904.322021 578.622925,913.698242 
	C565.139587,925.322083 551.554932,936.828247 538.014709,948.386047 
	C527.242554,957.580933 516.471497,966.777100 505.063782,975.952393 
	C517.388733,953.205933 530.374268,930.493530 543.295715,907.744873 
	C546.971008,901.274475 550.459900,894.698181 554.034302,888.170471 
	C562.862854,873.101257 571.767700,858.076111 580.506897,842.955261 
	C617.325989,779.249817 654.097046,715.516479 690.883118,651.791931 
	C732.662842,579.416992 774.444580,507.043182 816.209229,434.659546 
	C819.616394,428.754547 822.898804,422.777557 826.313232,416.474213 
z"/>
<path fill="#FFE372" opacity="1.000000" stroke="none" 
	d="
M175.066467,416.644165 
	C175.064758,416.189667 175.403427,416.099518 175.574692,416.078857 
	C237.765060,523.508118 299.780060,630.960449 361.805145,738.406860 
	C390.445465,788.020569 419.102936,837.624268 447.771667,887.221558 
	C448.512512,888.503235 449.474945,889.656799 450.659821,890.937134 
	C450.985596,891.004089 450.994141,890.975281 450.920471,891.301025 
	C451.256012,892.077820 451.665222,892.528931 452.042236,892.987915 
	C452.010040,892.995728 452.047668,892.941223 451.984802,893.273132 
	C452.356079,894.032959 452.790253,894.460876 453.179321,894.910095 
	C453.134216,894.931396 453.174164,894.840027 453.109375,895.174316 
	C453.489014,895.923157 453.933502,896.337708 454.285522,896.887085 
	C454.193054,897.021912 454.352600,896.737000 454.276031,897.023682 
	C454.477325,897.541382 454.755188,897.772522 455.012878,898.005249 
	C454.992767,898.006775 455.009155,897.969849 454.933350,898.294189 
	C455.265167,899.071716 455.672760,899.524902 456.047150,899.985840 
	C456.013916,899.993530 456.051392,899.936523 455.995056,900.268433 
	C456.370209,901.028564 456.801666,901.456787 457.194763,901.894653 
	C457.156403,901.904297 457.162201,901.825378 457.131409,902.116333 
	C457.391479,902.618591 457.682312,902.829895 457.973511,903.029358 
	C457.973877,903.017578 457.951080,903.011719 457.873291,903.335693 
	C458.212891,904.106018 458.630219,904.552429 459.022339,905.001953 
	C458.997101,905.005066 459.018524,904.958923 458.955536,905.284912 
	C459.291809,906.063538 459.691071,906.516235 460.055054,906.979858 
	C460.019714,906.990662 460.060089,906.928833 460.016266,907.257019 
	C460.404327,908.016418 460.836182,908.447632 461.227844,908.878174 
	C461.187653,908.877502 461.211517,908.800720 461.151001,909.139099 
	C461.545319,909.860168 462.000153,910.242859 462.474915,910.650269 
	C462.494843,910.674927 462.478790,910.736267 462.369019,911.006775 
	C462.522339,911.518433 462.785461,911.759521 463.022827,912.003296 
	C462.997040,912.005920 463.018036,911.958618 462.961365,912.285828 
	C463.316711,913.056763 463.728760,913.500549 464.102295,913.956299 
	C464.063782,913.968384 464.095123,913.893982 464.052734,914.223633 
	C464.429749,914.995911 464.849182,915.438538 465.223328,915.879761 
	C465.178040,915.878296 465.196289,915.789551 465.164490,916.083130 
	C465.424622,916.592285 465.716553,916.807922 465.992798,917.019897 
	C465.977142,917.016113 465.980927,916.984070 465.906830,917.308105 
	C466.239807,918.086975 466.646881,918.541931 467.026611,919.000244 
	C466.999298,919.003601 467.021881,918.953430 466.972717,919.283447 
	C467.342590,920.048584 467.761658,920.483826 468.139832,920.934021 
	C468.098907,920.948975 468.130524,920.867798 468.078186,921.199646 
	C468.456787,921.964050 468.887665,922.396667 469.273865,922.837097 
	C469.229156,922.844910 469.262878,922.760681 469.212494,923.051636 
	C469.444122,923.569580 469.726166,923.796631 469.992615,924.019836 
	C469.977020,924.015991 469.980865,923.984070 469.909729,924.307495 
	C470.243713,925.086304 470.648834,925.541626 471.026611,926.000305 
	C470.999237,926.003601 471.021820,925.953308 470.973938,926.283203 
	C471.351318,927.045654 471.776581,927.478149 472.162964,927.920776 
	C472.124054,927.930847 472.141174,927.852356 472.098602,928.184998 
	C472.476959,928.955383 472.897888,929.393066 473.276428,929.834717 
	C473.234070,929.838623 473.259674,929.757446 473.215027,930.048706 
	C473.458740,930.562256 473.747131,930.784485 474.013000,931.008179 
	C473.990448,931.009521 474.005096,930.966858 473.946136,931.291748 
	C474.280457,932.073730 474.673737,932.530762 475.036926,932.993164 
	C475.006805,932.998535 475.035645,932.944519 474.990356,933.271240 
	C475.373230,934.034973 475.801392,934.471985 476.185486,934.907715 
	C476.141388,934.906372 476.156158,934.819458 476.132568,935.108521 
	C476.395172,935.614014 476.681335,935.830383 476.967346,936.034546 
	C476.967224,936.022400 476.944916,936.012817 476.876556,936.336182 
	C477.217316,937.108887 477.626434,937.558228 478.012817,938.008728 
	C477.990051,938.009888 478.004791,937.966797 477.951050,938.290894 
	C478.295593,939.067932 478.693848,939.520874 479.057495,939.981079 
	C479.022858,939.988342 479.057251,939.926514 479.021545,940.254761 
	C479.414734,941.013916 479.843689,941.444885 480.229858,941.875610 
	C480.187134,941.875305 480.203674,941.791382 480.167816,942.079590 
	C480.410309,942.593872 480.688660,942.819946 480.967896,943.033569 
	C480.968781,943.021118 480.945221,943.013123 480.883667,943.335999 
	C481.232727,944.104858 481.643311,944.550781 482.026672,945.000183 
	C481.999420,945.003601 482.022339,944.953735 481.968750,945.278015 
	C482.307526,946.059692 482.699890,946.517090 483.057678,946.981384 
	C483.023102,946.988281 483.057220,946.926514 483.021667,947.254639 
	C483.414978,948.013855 483.843811,948.444885 484.229034,948.875732 
	C484.185425,948.875549 484.201691,948.789795 484.169922,949.079346 
	C484.422058,949.591370 484.706024,949.813843 484.979675,950.029297 
	C484.969360,950.022339 484.962006,949.998535 484.906677,950.322021 
	C485.252167,951.095947 485.653015,951.546387 486.026611,952.000244 
	C485.999359,952.003723 486.021912,951.953613 485.972260,952.279297 
	C486.331268,953.052979 486.739929,953.500916 487.111877,953.952454 
	C487.075165,953.956055 487.089539,953.883667 487.066284,954.213379 
	C487.455353,954.987549 487.867645,955.432068 488.232239,955.875244 
	C488.184509,955.873901 488.203033,955.780151 488.179077,956.070068 
	C488.440125,956.581909 488.725128,956.803833 488.992279,957.022339 
	C488.974396,957.018982 488.979187,956.982910 488.928711,957.305786 
	C489.272369,958.084106 489.666504,958.539551 490.031433,958.998535 
	C490.002228,959.002136 490.025391,958.947998 489.988464,959.272583 
	C490.364380,960.042480 490.777222,960.487915 491.151550,960.930176 
	C491.113068,960.927002 491.128967,960.851440 491.091888,961.181152 
	C491.468109,961.965454 491.881409,962.419922 492.243347,962.868958 
	C492.192017,962.863525 492.219513,962.763977 492.195160,963.054932 
	C492.454742,963.569580 492.738678,963.793152 493.002014,964.014893 
	C492.981415,964.013123 492.992645,963.973328 492.936493,964.311157 
	C493.239471,965.219727 493.598633,965.790588 494.190643,966.605103 
	C496.973083,970.960632 499.522644,975.072571 502.072205,979.184448 
	C501.012238,978.843262 499.703613,978.789368 498.928802,978.118713 
	C480.451263,962.125916 462.056549,946.037415 443.592743,930.028687 
	C426.636353,915.326904 409.617004,900.697876 392.624847,886.037354 
	C375.632690,871.376953 358.642303,856.714478 341.646606,842.058228 
	C322.276215,825.354065 302.891998,808.665955 283.530273,791.951721 
	C266.291046,777.069763 249.110550,762.119446 231.837387,747.276917 
	C213.825516,731.799561 195.672363,716.485596 177.779709,700.872375 
	C176.137024,699.438965 175.178696,696.355103 175.174622,694.035400 
	C175.041702,618.386169 175.064697,542.736633 175.065048,467.087128 
	C175.065125,450.424316 175.067093,433.761505 175.066467,416.644165 
z"/>
<path fill="#230202" opacity="1.000000" stroke="none" 
	d="
M502.375092,979.096436 
	C499.522644,975.072571 496.973083,970.960632 494.281586,966.244263 
	C493.757324,965.084229 493.375000,964.528809 492.992645,963.973328 
	C492.992645,963.973328 492.981415,964.013123 493.019531,963.725769 
	C492.778259,963.213623 492.498871,962.988831 492.219482,962.763977 
	C492.219513,962.763977 492.192017,962.863525 492.271118,962.541687 
	C491.943115,961.763733 491.536041,961.307556 491.128967,960.851440 
	C491.128967,960.851440 491.113068,960.927002 491.174072,960.606079 
	C490.831879,959.839478 490.428619,959.393738 490.025391,958.947998 
	C490.025391,958.947998 490.002228,959.002136 490.058167,958.677368 
	C489.735779,957.896057 489.357483,957.439514 488.979187,956.982910 
	C488.979187,956.982910 488.974396,957.018982 489.001526,956.733887 
	C488.753418,956.225891 488.478241,956.002991 488.203064,955.780151 
	C488.203033,955.780151 488.184509,955.873901 488.263763,955.546753 
	C487.925201,954.774292 487.507355,954.328979 487.089539,953.883667 
	C487.089539,953.883667 487.075165,953.956055 487.134155,953.629028 
	C486.802765,952.852539 486.412354,952.403076 486.021912,951.953613 
	C486.021912,951.953613 485.999359,952.003723 486.056000,951.679443 
	C485.729095,950.902893 485.345551,950.450745 484.962006,949.998535 
	C484.962006,949.998535 484.969360,950.022339 484.985596,949.743530 
	C484.735107,949.239685 484.468414,949.014771 484.201691,948.789795 
	C484.201691,948.789795 484.185425,948.875549 484.259003,948.549377 
	C483.907471,947.791016 483.482330,947.358765 483.057190,946.926514 
	C483.057220,946.926514 483.023102,946.988281 483.104553,946.657837 
	C482.798126,945.869507 482.410248,945.411621 482.022339,944.953735 
	C482.022339,944.953735 481.999420,945.003601 482.052765,944.682007 
	C481.719147,943.911316 481.332184,943.462219 480.945190,943.013123 
	C480.945221,943.013123 480.968781,943.021118 480.984192,942.747559 
	C480.734283,942.246460 480.468994,942.018921 480.203674,941.791382 
	C480.203674,941.791382 480.187134,941.875305 480.259888,941.549255 
	C479.907501,940.790955 479.482361,940.358765 479.057251,939.926514 
	C479.057251,939.926514 479.022858,939.988342 479.103638,939.657349 
	C478.791199,938.873169 478.398010,938.419983 478.004822,937.966797 
	C478.004791,937.966797 477.990051,938.009888 478.034302,937.690674 
	C477.700653,936.918518 477.322784,936.465698 476.944916,936.012817 
	C476.944916,936.012817 476.967224,936.022400 476.978729,935.745850 
	C476.712219,935.252686 476.434204,935.036072 476.156158,934.819458 
	C476.156158,934.819458 476.141388,934.906372 476.220032,934.580383 
	C475.877655,933.817810 475.456635,933.381165 475.035645,932.944519 
	C475.035645,932.944519 475.006805,932.998535 475.078766,932.669434 
	C474.768860,931.882446 474.386993,931.424683 474.005096,930.966858 
	C474.005096,930.966858 473.990448,931.009521 474.029236,930.722473 
	C473.798553,930.209412 473.529114,929.983398 473.259705,929.757446 
	C473.259674,929.757446 473.234070,929.838623 473.303680,929.510742 
	C472.962585,928.739380 472.551880,928.295898 472.141174,927.852356 
	C472.141174,927.852356 472.124054,927.930847 472.204132,927.595337 
	C471.863403,926.824280 471.442596,926.388794 471.021820,925.953308 
	C471.021820,925.953308 470.999237,926.003601 471.056030,925.678101 
	C470.735535,924.896362 470.358185,924.440247 469.980865,923.984070 
	C469.980865,923.984070 469.977020,924.015991 470.022003,923.733887 
	C469.798950,923.221436 469.530914,922.991089 469.262878,922.760681 
	C469.262878,922.760681 469.229156,922.844910 469.300293,922.512817 
	C468.957764,921.743103 468.544159,921.305420 468.130524,920.867798 
	C468.130524,920.867798 468.098907,920.948975 468.183411,920.610352 
	C467.852570,919.832275 467.437225,919.392883 467.021851,918.953430 
	C467.021881,918.953430 466.999298,919.003601 467.056030,918.678040 
	C466.735504,917.896362 466.358215,917.440186 465.980927,916.984070 
	C465.980927,916.984070 465.977142,917.016113 466.014557,916.728394 
	C465.766724,916.223694 465.481506,916.006592 465.196289,915.789551 
	C465.196289,915.789551 465.178040,915.878296 465.260193,915.551514 
	C464.926636,914.781128 464.510895,914.337524 464.095123,913.893982 
	C464.095123,913.893982 464.063782,913.968384 464.140991,913.633179 
	C463.818176,912.851562 463.418091,912.405090 463.018005,911.958618 
	C463.018036,911.958618 462.997040,912.005920 463.069214,911.742554 
	C462.920502,911.231628 462.699646,910.983948 462.478760,910.736267 
	C462.478790,910.736267 462.494843,910.674927 462.469727,910.345093 
	C462.033600,909.610413 461.622559,909.205566 461.211517,908.800720 
	C461.211517,908.800720 461.187653,908.877502 461.263031,908.548950 
	C460.912292,907.789917 460.486176,907.359375 460.060059,906.928833 
	C460.060089,906.928833 460.019714,906.990662 460.101624,906.656738 
	C459.795197,905.868164 459.406860,905.413513 459.018524,904.958923 
	C459.018524,904.958923 458.997101,905.005066 459.054321,904.680786 
	C458.724731,903.908203 458.337891,903.459961 457.951050,903.011719 
	C457.951080,903.011719 457.973877,903.017578 457.983429,902.739136 
	C457.716064,902.248962 457.439148,902.037170 457.162231,901.825378 
	C457.162201,901.825378 457.156403,901.904297 457.238983,901.569763 
	C456.898163,900.802307 456.474792,900.369446 456.051392,899.936523 
	C456.051392,899.936523 456.013916,899.993530 456.098572,899.661743 
	C455.791870,898.876587 455.400513,898.423218 455.009155,897.969849 
	C455.009155,897.969849 454.992767,898.006775 455.053650,897.727722 
	C454.860535,897.211426 454.606567,896.974243 454.352600,896.737000 
	C454.352600,896.737000 454.193054,897.021912 454.304596,896.568787 
	C454.002136,895.690491 453.588135,895.265259 453.174133,894.840027 
	C453.174164,894.840027 453.134216,894.931396 453.227356,894.585144 
	C452.896240,893.806335 452.471954,893.373779 452.047668,892.941223 
	C452.047668,892.941223 452.010040,892.995728 452.095947,892.663818 
	C451.785950,891.879700 451.390045,891.427490 450.994141,890.975281 
	C450.994141,890.975281 450.985596,891.004089 450.999695,891.006470 
	C450.430206,887.207092 453.244659,888.186401 455.153931,888.182007 
	C472.807983,888.141235 490.462158,888.157837 508.116302,888.157776 
	C523.105652,888.157654 538.095032,888.157471 553.559326,888.163940 
	C550.459900,894.698181 546.971008,901.274475 543.295715,907.744873 
	C530.374268,930.493530 517.388733,953.205933 504.729034,976.073975 
	C504.246368,977.146729 503.462158,978.077637 502.375092,979.096436 
z"/>
<path fill="#5B1815" opacity="1.000000" stroke="none" 
	d="
M624.673584,431.328369 
	C637.981384,446.702209 651.049866,461.813721 664.629639,477.516541 
	C624.651184,477.516541 585.334717,477.516541 544.922791,477.516541 
	C564.973145,454.344818 584.674072,431.576904 604.733398,408.394775 
	C611.598022,416.294495 618.016113,423.680267 624.673584,431.328369 
z"/>
<path fill="#5B1815" opacity="1.000000" stroke="none" 
	d="
M439.646301,454.357544 
	C446.289825,462.061371 452.696136,469.500885 459.598694,477.516693 
	C419.651154,477.516693 380.334381,477.516693 339.921387,477.516693 
	C359.972443,454.344543 379.673615,431.576752 399.735565,408.391998 
	C413.258850,423.969940 426.333984,439.031616 439.646301,454.357544 
z"/>
<path fill="#EC821B" opacity="1.000000" stroke="none" 
	d="
M469.909729,924.307495 
	C470.358185,924.440247 470.735535,924.896362 471.083405,925.674805 
	C470.648834,925.541626 470.243713,925.086304 469.909729,924.307495 
z"/>
<path fill="#EC821B" opacity="1.000000" stroke="none" 
	d="
M492.936493,964.311157 
	C493.375000,964.528809 493.757324,965.084229 494.048706,966.000549 
	C493.598633,965.790588 493.239471,965.219727 492.936493,964.311157 
z"/>
<path fill="#EC821B" opacity="1.000000" stroke="none" 
	d="
M470.973938,926.283203 
	C471.442596,926.388794 471.863403,926.824280 472.243042,927.585205 
	C471.776581,927.478149 471.351318,927.045654 470.973938,926.283203 
z"/>
<path fill="#EC821B" opacity="1.000000" stroke="none" 
	d="
M472.098602,928.184998 
	C472.551880,928.295898 472.962585,928.739380 473.346069,929.506836 
	C472.897888,929.393066 472.476959,928.955383 472.098602,928.184998 
z"/>
<path fill="#EC821B" opacity="1.000000" stroke="none" 
	d="
M473.946136,931.291748 
	C474.386993,931.424683 474.768860,931.882446 475.108887,932.664001 
	C474.673737,932.530762 474.280457,932.073730 473.946136,931.291748 
z"/>
<path fill="#EC821B" opacity="1.000000" stroke="none" 
	d="
M474.990356,933.271240 
	C475.456635,933.381165 475.877655,933.817810 476.264099,934.581726 
	C475.801392,934.471985 475.373230,934.034973 474.990356,933.271240 
z"/>
<path fill="#EC821B" opacity="1.000000" stroke="none" 
	d="
M476.876556,936.336182 
	C477.322784,936.465698 477.700653,936.918518 478.057068,937.689453 
	C477.626434,937.558228 477.217316,937.108887 476.876556,936.336182 
z"/>
<path fill="#EC821B" opacity="1.000000" stroke="none" 
	d="
M477.951080,938.290894 
	C478.398010,938.419983 478.791199,938.873169 479.138245,939.650085 
	C478.693848,939.520874 478.295593,939.067932 477.951080,938.290894 
z"/>
<path fill="#EC821B" opacity="1.000000" stroke="none" 
	d="
M479.021545,940.254761 
	C479.482361,940.358765 479.907501,940.790955 480.302612,941.549561 
	C479.843689,941.444885 479.414734,941.013916 479.021545,940.254761 
z"/>
<path fill="#EC821B" opacity="1.000000" stroke="none" 
	d="
M480.883667,943.335999 
	C481.332184,943.462219 481.719147,943.911316 482.080017,944.678589 
	C481.643311,944.550781 481.232727,944.104858 480.883667,943.335999 
z"/>
<path fill="#EC821B" opacity="1.000000" stroke="none" 
	d="
M481.968750,945.278015 
	C482.410248,945.411621 482.798126,945.869507 483.139130,946.650940 
	C482.699890,946.517090 482.307526,946.059692 481.968750,945.278015 
z"/>
<path fill="#EC821B" opacity="1.000000" stroke="none" 
	d="
M483.021667,947.254639 
	C483.482330,947.358765 483.907471,947.791016 484.302612,948.549561 
	C483.843811,948.444885 483.414978,948.013855 483.021667,947.254639 
z"/>
<path fill="#EC821B" opacity="1.000000" stroke="none" 
	d="
M484.906677,950.322021 
	C485.345551,950.450745 485.729095,950.902893 486.083252,951.675964 
	C485.653015,951.546387 485.252167,951.095947 484.906677,950.322021 
z"/>
<path fill="#EC821B" opacity="1.000000" stroke="none" 
	d="
M485.972290,952.279297 
	C486.412354,952.403076 486.802765,952.852539 487.170898,953.625427 
	C486.739929,953.500916 486.331268,953.052979 485.972290,952.279297 
z"/>
<path fill="#EC821B" opacity="1.000000" stroke="none" 
	d="
M487.066284,954.213379 
	C487.507355,954.328979 487.925201,954.774292 488.311493,955.548096 
	C487.867645,955.432068 487.455353,954.987549 487.066284,954.213379 
z"/>
<path fill="#EC821B" opacity="1.000000" stroke="none" 
	d="
M488.928711,957.305786 
	C489.357483,957.439514 489.735779,957.896057 490.087341,958.673828 
	C489.666504,958.539551 489.272369,958.084106 488.928711,957.305786 
z"/>
<path fill="#EC821B" opacity="1.000000" stroke="none" 
	d="
M489.988464,959.272583 
	C490.428619,959.393738 490.831879,959.839478 491.212585,960.609253 
	C490.777222,960.487915 490.364380,960.042480 489.988464,959.272583 
z"/>
<path fill="#EC821B" opacity="1.000000" stroke="none" 
	d="
M491.091888,961.181152 
	C491.536041,961.307556 491.943115,961.763733 492.322449,962.547119 
	C491.881409,962.419922 491.468109,961.965454 491.091888,961.181152 
z"/>
<path fill="#EC821B" opacity="1.000000" stroke="none" 
	d="
M460.016235,907.257019 
	C460.486176,907.359375 460.912292,907.789917 461.303223,908.549683 
	C460.836182,908.447632 460.404327,908.016418 460.016235,907.257019 
z"/>
<path fill="#EC821B" opacity="1.000000" stroke="none" 
	d="
M450.920471,891.301025 
	C451.390045,891.427490 451.785950,891.879700 452.128113,892.656006 
	C451.665222,892.528931 451.256012,892.077820 450.920471,891.301025 
z"/>
<path fill="#EC821B" opacity="1.000000" stroke="none" 
	d="
M451.984802,893.273132 
	C452.471954,893.373779 452.896240,893.806335 453.272461,894.563843 
	C452.790253,894.460876 452.356079,894.032959 451.984802,893.273132 
z"/>
<path fill="#EC821B" opacity="1.000000" stroke="none" 
	d="
M453.109344,895.174316 
	C453.588135,895.265259 454.002136,895.690491 454.397064,896.433960 
	C453.933502,896.337708 453.489014,895.923157 453.109344,895.174316 
z"/>
<path fill="#EC821B" opacity="1.000000" stroke="none" 
	d="
M454.933350,898.294189 
	C455.400513,898.423218 455.791870,898.876587 456.131805,899.654053 
	C455.672760,899.524902 455.265167,899.071716 454.933350,898.294189 
z"/>
<path fill="#EC821B" opacity="1.000000" stroke="none" 
	d="
M455.995056,900.268433 
	C456.474792,900.369446 456.898163,900.802307 457.277344,901.560181 
	C456.801666,901.456787 456.370209,901.028564 455.995056,900.268433 
z"/>
<path fill="#EC821B" opacity="1.000000" stroke="none" 
	d="
M457.873291,903.335693 
	C458.337891,903.459961 458.724731,903.908203 459.079559,904.677612 
	C458.630219,904.552429 458.212891,904.106018 457.873291,903.335693 
z"/>
<path fill="#EC821B" opacity="1.000000" stroke="none" 
	d="
M458.955536,905.284912 
	C459.406860,905.413513 459.795197,905.868164 460.136963,906.645874 
	C459.691071,906.516235 459.291809,906.063538 458.955536,905.284912 
z"/>
<path fill="#EC821B" opacity="1.000000" stroke="none" 
	d="
M461.151001,909.139099 
	C461.622559,909.205566 462.033600,909.610413 462.449799,910.320435 
	C462.000153,910.242859 461.545319,909.860168 461.151001,909.139099 
z"/>
<path fill="#EC821B" opacity="1.000000" stroke="none" 
	d="
M462.961334,912.285828 
	C463.418091,912.405090 463.818176,912.851562 464.179535,913.621094 
	C463.728760,913.500549 463.316711,913.056763 462.961334,912.285828 
z"/>
<path fill="#EC821B" opacity="1.000000" stroke="none" 
	d="
M464.052734,914.223633 
	C464.510895,914.337524 464.926636,914.781128 465.305481,915.552979 
	C464.849182,915.438538 464.429749,914.995911 464.052734,914.223633 
z"/>
<path fill="#EC821B" opacity="1.000000" stroke="none" 
	d="
M465.906830,917.308105 
	C466.358215,917.440186 466.735504,917.896362 467.083374,918.674683 
	C466.646881,918.541931 466.239807,918.086975 465.906830,917.308105 
z"/>
<path fill="#EC821B" opacity="1.000000" stroke="none" 
	d="
M466.972687,919.283447 
	C467.437225,919.392883 467.852570,919.832275 468.224335,920.595337 
	C467.761658,920.483826 467.342590,920.048584 466.972687,919.283447 
z"/>
<path fill="#EC821B" opacity="1.000000" stroke="none" 
	d="
M468.078186,921.199646 
	C468.544159,921.305420 468.957764,921.743103 469.344971,922.505005 
	C468.887665,922.396667 468.456787,921.964050 468.078186,921.199646 
z"/>
<path fill="#EC821B" opacity="1.000000" stroke="none" 
	d="
M462.368988,911.006775 
	C462.699646,910.983948 462.920502,911.231628 463.094971,911.739990 
	C462.785461,911.759521 462.522339,911.518433 462.368988,911.006775 
z"/>
<path fill="#EC821B" opacity="1.000000" stroke="none" 
	d="
M480.167847,942.079590 
	C480.468994,942.018921 480.734283,942.246460 480.983307,942.760010 
	C480.688660,942.819946 480.410309,942.593872 480.167847,942.079590 
z"/>
<path fill="#EC821B" opacity="1.000000" stroke="none" 
	d="
M469.212494,923.051636 
	C469.530914,922.991089 469.798950,923.221436 470.037598,923.737793 
	C469.726166,923.796631 469.444122,923.569580 469.212494,923.051636 
z"/>
<path fill="#EC821B" opacity="1.000000" stroke="none" 
	d="
M476.132568,935.108521 
	C476.434204,935.036072 476.712219,935.252686 476.978882,935.758057 
	C476.681335,935.830383 476.395172,935.614014 476.132568,935.108521 
z"/>
<path fill="#EC821B" opacity="1.000000" stroke="none" 
	d="
M484.169922,949.079346 
	C484.468414,949.014771 484.735107,949.239685 484.995911,949.750488 
	C484.706024,949.813843 484.422058,949.591370 484.169922,949.079346 
z"/>
<path fill="#EC821B" opacity="1.000000" stroke="none" 
	d="
M457.131409,902.116333 
	C457.439148,902.037170 457.716064,902.248962 457.983063,902.750977 
	C457.682312,902.829895 457.391479,902.618591 457.131409,902.116333 
z"/>
<path fill="#EC821B" opacity="1.000000" stroke="none" 
	d="
M465.164490,916.083130 
	C465.481506,916.006592 465.766724,916.223694 466.030212,916.732178 
	C465.716553,916.807922 465.424622,916.592285 465.164490,916.083130 
z"/>
<path fill="#EC821B" opacity="1.000000" stroke="none" 
	d="
M473.215027,930.048706 
	C473.529114,929.983398 473.798553,930.209412 474.051758,930.721069 
	C473.747131,930.784485 473.458740,930.562256 473.215027,930.048706 
z"/>
<path fill="#EC821B" opacity="1.000000" stroke="none" 
	d="
M488.179077,956.070068 
	C488.478241,956.002991 488.753418,956.225891 489.019409,956.737305 
	C488.725128,956.803833 488.440125,956.581909 488.179077,956.070068 
z"/>
<path fill="#EC821B" opacity="1.000000" stroke="none" 
	d="
M454.276031,897.023682 
	C454.606567,896.974243 454.860535,897.211426 455.073761,897.726196 
	C454.755188,897.772522 454.477325,897.541382 454.276031,897.023682 
z"/>
<path fill="#EC821B" opacity="1.000000" stroke="none" 
	d="
M492.195129,963.054932 
	C492.498871,962.988831 492.778259,963.213623 493.040131,963.727539 
	C492.738678,963.793152 492.454742,963.569580 492.195129,963.054932 
z"/>
</svg>